<svg width="28" height="29" viewBox="0 0 28 29" fill="none" xmlns="http://www.w3.org/2000/svg">
<path d="M19.8333 22.6667H22.1667V13.3333H15.1667V22.6667H17.5V15.6667H19.8333V22.6667ZM3.49999 22.6667V5.16667C3.49999 4.85725 3.62291 4.5605 3.8417 4.34171C4.0605 4.12292 4.35724 4 4.66666 4H21C21.3094 4 21.6062 4.12292 21.825 4.34171C22.0437 4.5605 22.1667 4.85725 22.1667 5.16667V11H24.5V22.6667H25.6667V25H2.33333V22.6667H3.49999ZM8.16666 13.3333V15.6667H10.5V13.3333H8.16666ZM8.16666 18V20.3333H10.5V18H8.16666ZM8.16666 8.66667V11H10.5V8.66667H8.16666Z" fill="#231815"/>
</svg>
