<svg width="29" height="29" viewBox="0 0 29 29" fill="none" xmlns="http://www.w3.org/2000/svg">
<path d="M15.6667 18V22.6667H19.1667V25H9.83333V22.6667H13.3333V18H5.16667C4.85725 18 4.5605 17.8771 4.34171 17.6583C4.12292 17.4395 4 17.1428 4 16.8333V5.16667C4 4.85725 4.12292 4.5605 4.34171 4.34171C4.5605 4.12292 4.85725 4 5.16667 4H23.8333C24.1428 4 24.4395 4.12292 24.6583 4.34171C24.8771 4.5605 25 4.85725 25 5.16667V16.8333C25 17.1428 24.8771 17.4395 24.6583 17.6583C24.4395 17.8771 24.1428 18 23.8333 18H15.6667ZM9.83333 9.83333V12.1667H19.1667V9.83333H9.83333Z" fill="#231815"/>
</svg>
