<svg width="29" height="28" viewBox="0 0 29 28" fill="none" xmlns="http://www.w3.org/2000/svg">
<g clip-path="url(#clip0_108_548)">
<path d="M11.9722 2.625V5.15278H5.65278V22.8472H23.3472V16.5278H25.875V24.1111C25.875 24.4463 25.7418 24.7678 25.5048 25.0048C25.2678 25.2418 24.9463 25.375 24.6111 25.375H4.38889C4.05368 25.375 3.73221 25.2418 3.49518 25.0048C3.25816 24.7678 3.125 24.4463 3.125 24.1111V3.88889C3.125 3.55368 3.25816 3.23221 3.49518 2.99518C3.73221 2.75816 4.05368 2.625 4.38889 2.625H11.9722ZM21.713 8.57412L14.5 15.7871L12.7129 14L19.9259 6.78699L15.7639 2.625H25.875V12.7361L21.713 8.57412Z" fill="#231815"/>
</g>
<defs>
<clipPath id="clip0_108_548">
<rect width="28" height="28" fill="white" transform="translate(0.5)"/>
</clipPath>
</defs>
</svg>
