<?xml version="1.0" encoding="utf-8"?>
<!-- Generator: Adobe Illustrator 26.5.0, SVG Export Plug-In . SVG Version: 6.00 Build 0)  -->
<svg version="1.1" id="圖層_1" xmlns="http://www.w3.org/2000/svg" xmlns:xlink="http://www.w3.org/1999/xlink" x="0px" y="0px"
	 viewBox="0 0 32 32" style="enable-background:new 0 0 32 32;" xml:space="preserve">
<g id="document">
	<path d="M25,30H7c-0.6,0-1-0.4-1-1V3c0-0.6,0.4-1,1-1h9c0.6,0,1,0.4,1,1s-0.4,1-1,1H8v24h16V9c0-0.6,0.4-1,1-1s1,0.4,1,1v20
		C26,29.6,25.6,30,25,30z"/>
	<path d="M25,10c-0.2,0-0.4-0.1-0.6-0.2l-9-6c-0.5-0.3-0.6-0.9-0.3-1.4c0.3-0.5,0.9-0.6,1.4-0.3l9,6c0.5,0.3,0.6,0.9,0.3,1.4
		C25.6,9.8,25.3,10,25,10z"/>
	<path d="M16,10c-0.6,0-1-0.4-1-1V3c0-0.6,0.4-1,1-1s1,0.4,1,1v6C17,9.6,16.6,10,16,10z"/>
	<path d="M25,10h-9c-0.6,0-1-0.4-1-1s0.4-1,1-1h9c0.6,0,1,0.4,1,1S25.6,10,25,10z"/>
	<path d="M16,18h-5c-0.6,0-1-0.4-1-1c0-0.6,0.4-1,1-1h5c0.6,0,1,0.4,1,1C17,17.6,16.6,18,16,18z"/>
	<path d="M20,22h-9c-0.6,0-1-0.4-1-1s0.4-1,1-1h9c0.6,0,1,0.4,1,1S20.6,22,20,22z"/>
</g>
</svg>
