<svg width="29" height="29" viewBox="0 0 29 29" fill="none" xmlns="http://www.w3.org/2000/svg">
<path d="M25 23.8333C25 24.1427 24.8771 24.4395 24.6583 24.6582C24.4395 24.877 24.1428 25 23.8333 25H5.16667C4.85725 25 4.5605 24.877 4.34171 24.6582C4.12292 24.4395 4 24.1427 4 23.8333V11.5716C3.99988 11.3938 4.04039 11.2184 4.11844 11.0586C4.19648 10.8989 4.31001 10.7591 4.45033 10.65L13.7837 3.39095C13.9885 3.23164 14.2405 3.14514 14.5 3.14514C14.7595 3.14514 15.0115 3.23164 15.2163 3.39095L24.5497 10.65C24.69 10.7591 24.8035 10.8989 24.8816 11.0586C24.9596 11.2184 25.0001 11.3938 25 11.5716V23.8333ZM8.66667 18V20.3333H20.3333V18H8.66667Z" fill="#231815"/>
</svg>
