<?xml version="1.0" encoding="utf-8"?>
<!-- Generator: Adobe Illustrator 26.5.0, SVG Export Plug-In . SVG Version: 6.00 Build 0)  -->
<svg version="1.1" id="圖層_1" xmlns="http://www.w3.org/2000/svg" xmlns:xlink="http://www.w3.org/1999/xlink" x="0px" y="0px"
	 viewBox="0 0 29 28" style="enable-background:new 0 0 29 28;" xml:space="preserve">
<style type="text/css">
	.st0{clip-path:url(#SVGID_00000054960404540999433570000004470783739449138877_);}
	.st1{fill:#FFFFFF;}
</style>
<g>
	<defs>
		<rect id="SVGID_1_" x="0.5" width="28" height="28"/>
	</defs>
	<clipPath id="SVGID_00000113341083333519245160000016904409261407175833_">
		<use xlink:href="#SVGID_1_"  style="overflow:visible;"/>
	</clipPath>
	<g style="clip-path:url(#SVGID_00000113341083333519245160000016904409261407175833_);">
		<path class="st1" d="M12,2.6v2.5H5.7v17.7h17.7v-6.3h2.5v7.6c0,0.3-0.1,0.7-0.4,0.9c-0.2,0.2-0.6,0.4-0.9,0.4H4.4
			c-0.3,0-0.7-0.1-0.9-0.4c-0.2-0.2-0.4-0.6-0.4-0.9V3.9c0-0.3,0.1-0.7,0.4-0.9c0.2-0.2,0.6-0.4,0.9-0.4H12z M21.7,8.6l-7.2,7.2
			L12.7,14l7.2-7.2l-4.2-4.2h10.1v10.1L21.7,8.6z"/>
	</g>
</g>
</svg>
