<?xml version="1.0" encoding="utf-8"?>
<!-- Generator: Adobe Illustrator 24.2.3, SVG Export Plug-In . SVG Version: 6.00 Build 0)  -->
<svg version="1.1" id="圖層_1" xmlns="http://www.w3.org/2000/svg" xmlns:xlink="http://www.w3.org/1999/xlink" x="0px" y="0px"
	 viewBox="0 0 55 55" style="enable-background:new 0 0 55 55;" xml:space="preserve">
<style type="text/css">
	.st0{fill-rule:evenodd;clip-rule:evenodd;fill:#A69292;}
</style>
<path id="category_search_icon04" class="st0" d="M34.7,15.2V35c0,1.5-0.3,1.9-1.9,1.9h-4.5c0.3,0.6,0.5,1.1,0.8,1.6
	c1,2,2,4,2.9,5.9c0.5,1,0.4,1.8-0.3,2.1c-0.7,0.3-1.3,0-1.8-1c-1.3-2.7-2.7-5.3-4-8c-0.2-0.4-0.6-0.7-1.1-0.6c-1.5,0-3,0-4.5,0v8
	c0,1-0.5,1.6-1.2,1.6c-0.7,0-1.2-0.6-1.2-1.6c0-2.4,0-4.7,0-7.1v-1c-1.7,0-3.3,0-4.9,0c-0.3,0.1-0.5,0.3-0.7,0.6
	c-1.4,2.7-2.7,5.4-4.1,8.1c-0.2,0.7-0.8,1.1-1.5,0.9c-0.7-0.2-1.1-0.8-0.9-1.5c0-0.2,0.1-0.3,0.2-0.5c0.1-0.1,0.1-0.3,0.2-0.4
	c1-2.1,2.1-4.2,3.1-6.3c0.1-0.3,0.3-0.6,0.5-1H5.5c-1.7,0-2-0.3-2-2V15.3c-0.1-0.1-0.1-0.1-0.2-0.1c-2-0.1-2.1-0.2-2.1-2.3
	c0-1.2,0-2.3,0-3.5C1,8.7,1.4,8.1,2.1,8c0.2,0,0.3,0,0.5,0h33.3c0.6-0.1,1.2,0.4,1.3,1c0,0.1,0,0.2,0,0.3c0,1.4,0,2.8,0,4.2
	c0,1.2-0.4,1.6-1.6,1.6C35.3,15.2,35.1,15.2,34.7,15.2z M32.3,15.2H5.9v19.1h26.4V15.2z M34.7,10.4H3.6v2.3h31.1V10.4z M44.9,22.4
	c1.9,0,3.7,0,5.6,0c2.7,0,3.8,1.5,3.4,4.1c-1.2,6.7-2.3,10.1-3.4,16.8c-0.3,1.6-0.6,1.4-0.8,3.1c0,0.7-0.6,1.2-1.4,1.2
	c0,0-0.1,0-0.1,0c-2.1,0-4.1,0-6.2,0c-1.2,0-1.5-0.3-1.7-1.4c-1.4-8.4-2.8-11.7-4.3-20.1c-0.3-1.5,0.6-3.1,2.2-3.4c0,0,0.1,0,0.1,0
	c0.4-0.1,0.7-0.1,1.1-0.1C41.3,22.4,43.1,22.3,44.9,22.4L44.9,22.4z M42.6,45c1.4,0,2.8,0,4.2,0c0.3-0.1,0.5-0.3,0.6-0.6
	c0.3-1.5,0.5-1.2,0.8-2.7c1.1-6.3,2.2-9.5,3.2-15.8c0.2-1,0.1-1.1-0.9-1.1H39.4c-1.1,0-1.2,0.1-1,1.3c1,5.6,1.9,8,2.9,13.7
	C41.7,42.1,42.2,42.6,42.6,45z M45,21.2c-3,0-5.4-2.4-5.4-5.4c0-3,2.4-5.4,5.4-5.4l0,0c3,0,5.4,2.4,5.4,5.4
	C50.4,18.7,48,21.2,45,21.2L45,21.2z M45.1,12.7c-1.7,0-3.1,1.3-3.1,3c0,1.6,1.2,3,2.9,3.1c1.7,0.1,3.1-1.2,3.1-2.9
	C48,14.2,46.7,12.8,45.1,12.7z M20.2,27.7c1.6-2.1,3.2-4.2,4.9-6.5c-1.1,0-1.9,0-2.8,0c-0.4,0-0.8,0-1.1-0.1
	c-0.6-0.1-0.9-0.7-0.8-1.3c0-0.6,0.5-1,1.1-1c0,0,0,0,0,0c2.1,0,4.2,0,6.3,0c0.5,0,1,0.4,1,1c0,0,0,0.1,0,0.1c0,2,0,4,0,6
	c0,0.7-0.5,1.2-1.2,1.2c0,0,0,0,0,0c-0.7,0-1.2-0.6-1.2-1.2c0,0,0,0,0,0c0-0.7-0.1-1.4-0.2-2.2c-0.8,1-1.5,2.1-2.3,3.1
	c-0.8,1.1-1.5,2.1-2.3,3.1c-0.8,1-1.4,1-2.3,0.1c-1.2-1.2-2.4-2.4-3.6-3.7c-1.2,1.1-2.2,2.2-3.3,3.3c-0.2,0.3-0.5,0.5-0.8,0.7
	c-0.5,0.4-1.2,0.4-1.6-0.1c-0.5-0.4-0.5-1.1-0.2-1.5c0,0,0,0,0.1-0.1c1.6-1.7,3.3-3.4,5-5c0.6-0.6,1.3-0.3,1.8,0.3
	C17.8,25.3,19,26.5,20.2,27.7z"/>
</svg>
