<?xml version="1.0" encoding="utf-8"?>
<!-- Generator: Adobe Illustrator 24.2.3, SVG Export Plug-In . SVG Version: 6.00 Build 0)  -->
<svg version="1.1" id="圖層_1" xmlns="http://www.w3.org/2000/svg" xmlns:xlink="http://www.w3.org/1999/xlink" x="0px" y="0px"
	 viewBox="0 0 55 55" style="enable-background:new 0 0 55 55;" xml:space="preserve">
<style type="text/css">
	.st0{fill-rule:evenodd;clip-rule:evenodd;fill:#A69292;}
</style>
<path id="category_search_icon03" class="st0" d="M48.3,4.7H30.7c-1.8,1.7-4.6,1.7-6.3,0H6.7C6,4.7,5.4,5.3,5.4,6v29.1
	c0,0.7,0.6,1.3,1.3,1.3c0,0,0,0,0,0h17.6c1,0,1.8,0.8,1.8,1.8c0,0.1,0,0.2,0,0.3V49c0,0.7,0.6,1.3,1.3,1.3c0.7,0,1.3-0.6,1.3-1.3
	l0,0V38.5c0-0.1,0-0.2,0-0.3c0-1,0.8-1.8,1.8-1.8h17.6c0.7,0,1.3-0.6,1.3-1.3c0,0,0,0,0,0V6C49.6,5.3,49,4.7,48.3,4.7z M26.1,34.2
	c-0.6-0.2-1.2-0.4-1.8-0.4H8V7.3h16.3c1,0,1.8,0.8,1.8,1.8V34.2z M47,33.8H30.7c-0.6,0-1.2,0.1-1.8,0.4V9.1c0-1,0.8-1.8,1.8-1.8H47
	V33.8z M10.9,12.4h8c0.7,0,1.3-0.6,1.3-1.3c0-0.7-0.6-1.3-1.3-1.3c0,0,0,0,0,0h-8c-0.7,0-1.3,0.6-1.3,1.3
	C9.6,11.8,10.2,12.4,10.9,12.4L10.9,12.4z M23,14.4H10.9c-0.7,0-1.3,0.6-1.3,1.3c0,0.7,0.6,1.3,1.3,1.3c0,0,0,0,0,0H23
	c0.7,0,1.3-0.6,1.3-1.3C24.3,15,23.7,14.4,23,14.4L23,14.4z M23,19.1H10.9c-0.7-0.1-1.3,0.5-1.4,1.2c-0.1,0.7,0.5,1.3,1.2,1.4
	c0.1,0,0.2,0,0.2,0H23c0.7,0.1,1.3-0.5,1.4-1.2s-0.5-1.3-1.2-1.4C23.2,19.1,23.1,19.1,23,19.1L23,19.1z M23,23.7H10.9
	c-0.7,0-1.3,0.6-1.3,1.3c0,0.7,0.6,1.3,1.3,1.3c0,0,0,0,0,0H23c0.7,0,1.3-0.6,1.3-1.3S23.7,23.7,23,23.7L23,23.7z M23,28.3H10.9
	c-0.7,0-1.3,0.6-1.3,1.3c0,0.7,0.6,1.3,1.3,1.3c0,0,0,0,0,0H23c0.7,0,1.3-0.6,1.3-1.3S23.7,28.3,23,28.3L23,28.3z M43.6,23.7H31.5
	c-0.7,0-1.3,0.6-1.3,1.3c0,0.7,0.6,1.3,1.3,1.3c0,0,0,0,0,0h12.1c0.7,0,1.3-0.6,1.3-1.3S44.3,23.7,43.6,23.7L43.6,23.7z M43.6,28.3
	H31.5c-0.7,0-1.3,0.6-1.3,1.3c0,0.7,0.6,1.3,1.3,1.3c0,0,0,0,0,0h12.1c0.7,0,1.3-0.6,1.3-1.3S44.3,28.3,43.6,28.3L43.6,28.3z
	 M30.2,11.1v9.3c0,0.7,0.6,1.3,1.3,1.3h12c0.7,0,1.3-0.6,1.3-1.3v-9.3c0-0.7-0.6-1.3-1.3-1.3c0,0,0,0,0,0h-12
	C30.8,9.8,30.3,10.4,30.2,11.1C30.2,11.1,30.2,11.1,30.2,11.1L30.2,11.1z M32.9,12.4h9.3v6.7h-9.3V12.4z M22.9,40.3
	c-1.1-1.1-2.7-1.7-4.3-1.7h-4.9c-0.7,0-1.3,0.6-1.3,1.3v3.1c0,3.3,2.7,5.9,6,5.9h4.9c0.4,0,0.7-0.1,0.9-0.4c0.2-0.2,0.4-0.6,0.4-0.9
	v-3.1C24.7,42.9,24,41.3,22.9,40.3L22.9,40.3z M18.4,46.2c-1.8,0-3.4-1.5-3.4-3.3v-1.8h3.6c0.9,0,1.7,0.3,2.4,1c0.6,0.6,1,1.5,1,2.3
	l0,0v1.8L18.4,46.2L18.4,46.2z M41.5,38.5h-4.9c-1.6,0-3.1,0.6-4.3,1.7c-1.1,1.1-1.8,2.6-1.8,4.2v3.1c0,0.3,0.1,0.7,0.4,0.9
	c0.2,0.2,0.6,0.4,0.9,0.4h4.9c3.3,0,6-2.6,6-5.9v-3.1C42.8,39.1,42.3,38.5,41.5,38.5L41.5,38.5z M40.2,42.9c0,1.8-1.5,3.3-3.4,3.3
	h-3.6v-1.8l0,0c0-0.9,0.4-1.7,1-2.3c0.6-0.6,1.5-1,2.4-1h3.6L40.2,42.9L40.2,42.9z"/>
</svg>
