<?xml version="1.0" encoding="utf-8"?>
<!-- Generator: Adobe Illustrator 24.2.3, SVG Export Plug-In . SVG Version: 6.00 Build 0)  -->
<svg version="1.1" id="圖層_1" xmlns="http://www.w3.org/2000/svg" xmlns:xlink="http://www.w3.org/1999/xlink" x="0px" y="0px"
	 viewBox="0 0 55 55" style="enable-background:new 0 0 55 55;" xml:space="preserve">
<style type="text/css">
	.st0{fill-rule:evenodd;clip-rule:evenodd;fill:#A69292;}
</style>
<path id="category_search_icon02" class="st0" d="M20.1,34.3H9.2c-0.7,0-1.3,0.6-1.3,1.3c0,0.7,0.6,1.3,1.3,1.3l0,0h10.9
	c0.7,0,1.3-0.6,1.3-1.3C21.4,34.9,20.8,34.3,20.1,34.3z M20.1,37.7H9.2c-0.7,0-1.3,0.6-1.3,1.3c0,0.7,0.6,1.3,1.3,1.3l0,0h10.9
	c0.7,0,1.3-0.6,1.3-1.3C21.4,38.4,20.8,37.8,20.1,37.7C20.1,37.7,20.1,37.7,20.1,37.7L20.1,37.7z M20.1,41.2H9.2
	c-0.7,0-1.3,0.6-1.3,1.3c0,0.7,0.6,1.3,1.3,1.3l0,0h10.9c0.7,0,1.3-0.6,1.3-1.3C21.4,41.8,20.8,41.2,20.1,41.2
	C20.1,41.2,20.1,41.2,20.1,41.2L20.1,41.2z M53.2,33.4l-4.7-8.2c0-0.1,0-0.2,0-0.4c0-8.1-6-15.1-14-16.3C34,5.5,31.4,3.1,28.2,3
	c0,0-0.1,0-0.1,0s0,0-0.1,0s0,0-0.1,0c0,0-0.1,0-0.1,0c-3.5,0.1-6.3,3-6.4,6.6v18.5c0,0.3-0.2,0.5-0.5,0.5s-0.5-0.2-0.5-0.5V20
	c0,0,0,0,0-0.1v-1.2c0-2.8-2.3-5.1-5.1-5.2c0,0-0.1,0-0.1,0h-0.1c0,0-0.1,0-0.1,0c-2.8,0.1-5.1,2.4-5.1,5.2v1.5
	c-0.3-0.3-0.6-0.5-1-0.5H6.4c-0.7,0-1.3,0.6-1.3,1.3c0,0,0,0,0,0V47c0,0.7,0.6,1.3,1.3,1.3c0,0,0,0,0,0h13.9c0.6,0,1.2,0.4,1.3,1
	H4.2V22.8c0-0.7-0.6-1.3-1.4-1.3c-0.7,0-1.3,0.6-1.3,1.3v27.9c0,0.7,0.6,1.3,1.3,1.3c0,0,0,0,0,0H24c0.7,0,1.3-0.6,1.3-1.3
	c0-0.6-0.4-1.1-1-1.3V32.3c0-0.7-0.6-1.3-1.4-1.3c-0.7,0-1.3,0.6-1.3,1.3v13.6c-0.4-0.2-0.9-0.2-1.4-0.2H7.7V22.5h1.4
	c0.4,0,0.7-0.2,1-0.5v0.1c0,0.7,0.6,1.3,1.4,1.3c0.7,0,1.3-0.6,1.3-1.3v-0.2c0.2,0.4,0.7,0.6,1.1,0.6h2.7c0.6,0,1.1-0.4,1.3-0.9v3.2
	c-0.2-0.6-0.7-0.9-1.3-0.9H9.2c-0.7,0-1.3,0.6-1.3,1.3c0,0.7,0.6,1.3,1.3,1.3h7.4c0.6,0,1.1-0.4,1.3-0.9v2.6c0,0.1,0,0.1,0,0.2
	c-0.2-0.6-0.7-1-1.3-1H9.2c-0.7,0-1.3,0.6-1.3,1.3c0,0.7,0.6,1.3,1.3,1.3h7.4c0.7,0,1.3-0.6,1.3-1.3c0.2,0.9,0.7,1.6,1.5,2.1H9.2
	c-0.7,0-1.3,0.6-1.3,1.3c0,0.7,0.6,1.3,1.3,1.3l0,0h10.9c0.7,0,1.3-0.6,1.3-1.3c0,0,0,0,0,0c0-0.3-0.1-0.6-0.3-0.9
	c1.7,0,3.1-1.4,3.1-3.2V13.4c2.3-1.5,5-2.4,7.7-2.4v7.1c-3.2,0.8-5.1,4.1-4.3,7.2c0.8,3.2,4.1,5.1,7.2,4.3c3.2-0.8,5.1-4.1,4.3-7.2
	c-0.6-2.2-2.3-3.9-4.6-4.4v-1.2c3.9,0.7,6.5,4.4,5.8,8.3C39.7,29,36,31.6,32.1,31c-1.6-0.3-3-1.1-4.1-2.3c-0.5-0.5-1.3-0.6-1.9-0.1
	c-0.5,0.5-0.6,1.3-0.1,1.9c3.6,4.1,9.8,4.4,13.8,0.8c4.1-3.6,4.4-9.8,0.8-13.8c-1.6-1.8-3.8-2.9-6.1-3.2v-2.9
	c6.5,1.3,11.2,7,11.2,13.6c0,0.2,0,0.4,0,0.6c0,0.3,0.1,0.5,0.2,0.7l3.8,6.5h-1.2c-0.7,0-1.3,0.6-1.3,1.3c0,0,0,0,0,0v6
	c0,1.5-1.2,2.8-2.8,2.8h-6.5c-0.7,0-1.3,0.6-1.3,1.3c0,0,0,0,0,0v5.5c0,0.7,0.6,1.3,1.3,1.3c0.7,0,1.3-0.6,1.3-1.3c0,0,0,0,0,0v-4.1
	h5.2c3,0,5.4-2.4,5.4-5.4v-4.7h2.2c0.5,0,0.9-0.3,1.2-0.7C53.5,34.3,53.5,33.8,53.2,33.4L53.2,33.4z M16.6,19.8h-2.7
	c-0.5,0-0.9,0.2-1.1,0.6v-1.7c0-1.4,1.1-2.5,2.5-2.5c1.4,0,2.5,1.1,2.5,2.5c0,0,0,0,0,0v0.8c0,0,0,0,0,0.1v1.1
	C17.7,20.2,17.2,19.8,16.6,19.8L16.6,19.8z M24.2,9.6c0-2.1,1.7-3.9,3.8-3.9c1.7,0,3.2,1.1,3.7,2.7c-2.6,0-5.2,0.7-7.5,1.9V9.6
	L24.2,9.6z M36.7,23.9c0,1.8-1.5,3.3-3.3,3.3c-1.8,0-3.3-1.5-3.3-3.3s1.5-3.3,3.3-3.3c0,0,0,0,0,0C35.2,20.6,36.7,22.1,36.7,23.9
	L36.7,23.9z"/>
</svg>
