<?xml version="1.0" encoding="utf-8"?>
<!-- Generator: Adobe Illustrator 24.2.3, SVG Export Plug-In . SVG Version: 6.00 Build 0)  -->
<svg version="1.1" id="圖層_1" xmlns="http://www.w3.org/2000/svg" xmlns:xlink="http://www.w3.org/1999/xlink" x="0px" y="0px"
	 viewBox="0 0 55 55" style="enable-background:new 0 0 55 55;" xml:space="preserve">
<style type="text/css">
	.st0{fill-rule:evenodd;clip-rule:evenodd;fill:#A69292;}
</style>
<path id="category_search_icon01" class="st0" d="M34.4,20.2c-4.1-3.2-9.9-2.5-13.2,1.5c-1.5,1.9-2.3,4.3-2,6.8
	c0.7,5.1,5.4,8.8,10.5,8.1c2.4-0.3,4.6-1.5,6.1-3.4c1.5-1.9,2.3-4.3,2-6.8C37.6,24,36.4,21.7,34.4,20.2z M34,31.7
	c-1.2,1.4-2.8,2.3-4.7,2.5c-0.3,0-0.5,0-0.8,0c-3.5,0-6.5-2.6-6.9-6.1c-0.2-1.8,0.3-3.6,1.5-5c1.2-1.4,2.8-2.3,4.7-2.5
	c1.8-0.2,3.7,0.3,5.1,1.4c1.4,1.1,2.4,2.8,2.6,4.6C35.7,28.5,35.2,30.3,34,31.7L34,31.7z M29,21.8c-1.8,0.2-3.4,1.1-4.5,2.5
	c-1.1,1.4-1.6,3.1-1.4,4.9c0.1,0.6,0.6,1.1,1.2,1.1c0,0,0.1,0,0.1,0c0.7-0.1,1.1-0.7,1.1-1.3c0,0,0,0,0,0c-0.1-1.1,0.2-2.2,0.9-3.1
	c0.7-0.9,1.8-1.5,2.9-1.6c0.7-0.1,1.1-0.6,1.1-1.3c0,0,0,0,0,0C30.3,22.2,29.7,21.7,29,21.8L29,21.8z M53.3,41.9
	c-0.1-0.1-0.2-0.3-0.3-0.4l-9.1-7.2c-0.5-0.4-1.3-0.3-1.7,0.2l-1,1.3l-1.2-0.9c3.9-5.8,2.7-13.6-2.8-17.9l0,0
	c-5.9-4.6-14.4-3.7-19.2,2.1c-4.6,5.7-3.8,14,1.9,18.6c0.1,0.1,0.2,0.1,0.2,0.2c2.4,1.9,5.4,2.9,8.5,2.9c0.5,0,1,0,1.5-0.1
	c3.2-0.3,6.1-1.8,8.3-4.1l1.2,0.9l-1,1.3c-0.4,0.5-0.3,1.2,0.2,1.7c0,0,0,0,0,0l9.1,7.2c0.1,0.1,0.3,0.2,0.4,0.2
	c0.4,0.1,0.8,0.2,1.2,0.2c1.3,0,2.5-0.6,3.3-1.6C54,45.2,54.2,43.3,53.3,41.9L53.3,41.9z M29.8,38.4c-2.9,0.3-5.9-0.5-8.2-2.3
	c-4.8-3.7-5.6-10.5-1.9-15.3c0.1-0.1,0.1-0.1,0.2-0.2c1.9-2.3,4.6-3.8,7.5-4.1c0.4,0,0.8-0.1,1.3-0.1c2.5,0,5,0.8,7,2.4
	c4.8,3.7,5.6,10.5,1.9,15.3c0,0.1-0.1,0.1-0.1,0.2C35.5,36.6,32.8,38.1,29.8,38.4L29.8,38.4z M43.3,36.9l0.6,0.5L41.9,40l-0.6-0.5
	L43.3,36.9z M51,45.1c-0.4,0.5-1.1,0.8-1.8,0.7l-5.4-4.3l2.1-2.5l5.4,4.3C51.5,43.8,51.4,44.5,51,45.1L51,45.1z M40.1,17.9
	c0.6,0,1.1-0.4,1.2-1c0-0.1,0-0.1,0-0.2V2.6c0-0.7-0.6-1.3-1.3-1.2h-33c-3.3,0-5.9,2.6-5.9,5.8v40.6c0.1,3.2,2.7,5.8,5.9,5.8h33
	c0.4,0,0.8-0.2,1.1-0.6c0.2-0.4,0.3-0.8,0.1-1.2c-1.3-2.6-1.3-5.6,0-8.1c0.1-0.2,0-0.4-0.1-0.5L39.5,42C39.5,42,39.4,42,39.3,42h-29
	V3.8h28.6v12.7c0,0,0,0.1,0,0.1C38.8,17.4,39.4,17.9,40.1,17.9L40.1,17.9z M3.7,7.2c0-1.9,1.5-3.4,3.4-3.3h0.6V42H7.1
	c-1.2,0-2.4,0.4-3.4,1.1L3.7,7.2L3.7,7.2z M7.1,44.5h31.2c-0.7,2.2-0.7,4.5,0,6.7H7.1c-1.8,0.1-3.4-1.4-3.5-3.2s1.4-3.4,3.2-3.5
	C6.9,44.5,7,44.5,7.1,44.5L7.1,44.5z"/>
</svg>
