<?xml version="1.0" encoding="utf-8"?>
<!-- Generator: Adobe Illustrator 24.2.3, SVG Export Plug-In . SVG Version: 6.00 Build 0)  -->
<svg version="1.1" id="圖層_1" xmlns="http://www.w3.org/2000/svg" xmlns:xlink="http://www.w3.org/1999/xlink" x="0px" y="0px"
	 viewBox="0 0 55 55" style="enable-background:new 0 0 55 55;" xml:space="preserve">
<style type="text/css">
	.st0{fill-rule:evenodd;clip-rule:evenodd;fill:#A69292;}
</style>
<path id="category_search_icon05" class="st0" d="M17.5,13.9c2.3,0,4.2-2,4.2-4.3c0-2.3-2-4.2-4.3-4.2c-2.3,0-4.2,1.9-4.2,4.2
	C13.2,12.1,15.1,14,17.5,13.9z M17.5,8c0.9,0,1.7,0.8,1.7,1.7c0,0.9-0.8,1.7-1.7,1.7c-0.9,0-1.7-0.8-1.7-1.7C15.8,8.8,16.5,8,17.5,8
	L17.5,8z M39.3,8.6c2.3,0,4.1-1.9,4-4.1c0-2.3-1.9-4.1-4.1-4c-2.2,0-4,1.8-4,4.1C35.1,6.8,37,8.7,39.3,8.6L39.3,8.6z M39.3,2.7
	c1,0,1.8,0.9,1.8,1.9c0,1-0.9,1.8-1.9,1.8c-1,0-1.8-0.8-1.8-1.8C37.4,3.5,38.2,2.7,39.3,2.7L39.3,2.7z M17.5,32.8
	c-2.3,0-4.2,2-4.2,4.3c0,2.3,2,4.2,4.3,4.2c2.3,0,4.2-1.9,4.2-4.2C21.7,34.6,19.8,32.7,17.5,32.8L17.5,32.8z M17.5,38.7
	c-0.9,0-1.7-0.8-1.7-1.7s0.8-1.7,1.7-1.7c0.9,0,1.7,0.8,1.7,1.7C19.2,37.9,18.4,38.7,17.5,38.7L17.5,38.7z M39.3,32.8
	c-2.3,0-4.2,2-4.2,4.3c0,2.3,2,4.2,4.3,4.2c2.3,0,4.2-1.9,4.2-4.2C43.6,34.6,41.6,32.7,39.3,32.8L39.3,32.8z M39.3,38.7
	c-0.9,0-1.7-0.8-1.7-1.7s0.8-1.7,1.7-1.7c0.9,0,1.7,0.8,1.7,1.7C41,37.9,40.2,38.7,39.3,38.7L39.3,38.7z M50.8,41.6L50.8,41.6
	l-2.7-14.8v0c-0.2-1.2-1.3-2-2.5-2H44v-1.2c0.2,0,0.4,0.1,0.6,0.1c1.5,0,2.8-1.2,2.9-2.7v-5.9l0,0c0-3-2.4-5.5-5.5-5.6
	c0,0,0,0-0.1,0h-5.4c-3.1,0-5.5,2.4-5.6,5.5c0,0,0,0,0,0v5.8c0,1.6,1.3,2.8,2.9,2.8c0.2,0,0.5,0,0.7-0.1v1.2h-8.7v-4.2l0,0
	c0-3.1-2.5-5.7-5.6-5.7c0,0-0.1,0-0.1,0h-5.3c-3.1,0-5.7,2.5-5.7,5.6c0,0,0,0,0,0.1v4.2c-1.1,0.1-2,0.9-2.3,2l0,0L4.2,41.6l0,0
	c-0.1,0.7,0,1.5,0.5,2.1c0.5,0.6,1.2,0.9,2,0.9h3.4c-0.6,0.9-1,2.1-1,3.2v4.9c0,1,0.8,1.9,1.9,1.8h13c1,0,1.9-0.8,1.9-1.9
	c0,0,0,0,0,0v-4.9l0,0c0-1.1-0.3-2.3-1-3.2h7c-0.6,0.9-1,2.1-1,3.2v4.9c0,1,0.8,1.8,1.8,1.8h13c1.1,0,1.9-0.8,1.9-1.9v-4.9l0,0
	c0-1.1-0.4-2.3-1-3.2h1.6c0.7,0,1.5-0.3,1.9-0.9C50.8,43.1,51,42.3,50.8,41.6L50.8,41.6z M6.7,42l2.7-14.7h36.2L48.3,42c0,0,0,0,0,0
	l0,0H6.7L6.7,42z M35.8,15c-0.6,0-1.1,0.5-1.1,1.1c0,0,0,0,0,0v4.7c0,0.3-0.3,0.6-0.7,0.6c-0.3,0-0.6-0.2-0.6-0.5c0,0,0,0,0,0v-5.8
	c0-1.8,1.4-3.3,3.2-3.3c0,0,0.1,0,0.1,0H42c0.9,0,1.7,0.3,2.3,0.9c0.6,0.6,1,1.5,0.9,2.4v5.8c0,0.3-0.3,0.6-0.6,0.6
	c-0.3,0-0.6-0.3-0.6-0.6v-4.7c0-0.6-0.5-1.1-1.1-1.1s-1.1,0.5-1.1,1.1l0,0v8.6h-4.8v-8.6C36.9,15.5,36.4,15,35.8,15L35.8,15z
	 M14.9,17.4h5.3c1.7,0,3.1,1.4,3.2,3.1c0,0,0,0,0,0.1v4.2h-1.2V21c0-0.6-0.5-1.1-1.1-1.1c-0.6,0-1.1,0.5-1.1,1.1v3.8h-5V21
	c0-0.6-0.5-1.1-1.1-1.1c-0.6,0-1.1,0.5-1.1,1.1v3.8h-1.2v-4.2C11.7,18.8,13.1,17.4,14.9,17.4C14.8,17.4,14.8,17.4,14.9,17.4
	L14.9,17.4z M23.4,47.8V52h-1.2v-3.8c0-0.6-0.5-1.1-1.1-1.1c-0.6,0-1.1,0.5-1.1,1.1V52h-5v-3.8c0-0.6-0.5-1.1-1.1-1.1
	c-0.6,0-1.1,0.5-1.1,1.1V52h-1.2v-4.2c0-1.8,1.4-3.2,3.2-3.2h5.2C21.9,44.6,23.3,46,23.4,47.8L23.4,47.8z M45.2,47.8V52H44v-3.8
	c0-0.6-0.5-1.1-1.1-1.1c-0.6,0-1.1,0.5-1.1,1.1V52h-5v-3.8c0-0.6-0.5-1.1-1.1-1.1c-0.6,0-1.1,0.5-1.1,1.1V52h-1.2v-4.2
	c0-1.8,1.4-3.2,3.2-3.2h5.2C43.7,44.6,45.2,46,45.2,47.8L45.2,47.8z"/>
</svg>
